<?xml version="1.0" standalone="no"?>
<!DOCTYPE svg PUBLIC "-//W3C//DTD SVG 1.0//EN" "http://www.w3.org/TR/2001/REC-SVG-20010904/DTD/svg10.dtd">
<svg width="520" height="468" viewBox="0 0 520 468" xmlns="http://www.w3.org/2000/svg">
<title>Shield of the Trinity or Scutum Fidei diagram of Christian Trinitarian symbolism (basic English version)</title>
<g transform="translate(0,468) scale(1,-1)">
<g stroke-width="2.9" stroke="#000000" fill="#ffffff">
<path d="M22.8008,391.287
L232.294,270.144
V28.5845
H287.545
V270.144
L497.026,391.287
L469.401,439.137
L259.92,317.994
L49.801,439.137Z"/>
<path d="M76.8035,392.012
H443.036
L259.92,74.9841Z
M15.9036,386.606
L225.12,24.2341
H294.72
L503.936,386.606
L469.136,446.88
H50.7036Z"/>
<circle cx="259.92" cy="286.094" r="63.799"/>
<circle cx="74.8896" cy="392.012" r="63.799"/>
<circle cx="444.95" cy="392.012" r="63.799"/>
<circle cx="259.92" cy="74.9841" r="63.799"/>
</g>
<path d="M211.316,409.092
C211.316,405.96,210.779,405.459,207.312,405.333
L207.312,404.54
H219.714
V405.352
C216.29,405.476,215.608,406.058,215.608,409.092
L215.608,427.633
C215.608,430.681,216.195,431.224,219.714,431.391
L219.714,432.147
H207.312
V431.336
C210.861,431.131,211.316,430.678,211.316,427.633Z"/>
<path d="M233.602,417.653
L233.435,423.332
H233.008
L232.925,423.248
C232.549,422.956,232.507,422.914,232.34,422.914
C232.09,422.914,231.672,422.998,231.213,423.207
C230.294,423.541,229.375,423.708,228.29,423.708
C224.991,423.708,222.685,421.578,222.685,418.571
C222.685,416.233,224,414.562,227.496,412.558
L229.918,411.18
C231.379,410.345,232.08,409.342,232.08,408.048
C232.08,406.21,230.747,405.051,228.623,405.051
C227.204,405.051,225.909,405.59,225.115,406.503
C224.239,407.547,223.863,408.507,223.32,410.887
L222.726,410.887
V404.373
H223.195
C223.487,404.791,223.654,404.874,224.155,404.874
C224.531,404.874,225.115,404.791,226.076,404.54
C227.245,404.29,228.373,404.123,229.124,404.123
C232.34,404.123,234.98,406.544,234.98,409.468
C234.98,411.556,233.987,412.934,231.504,414.437
L226.994,417.11
C225.825,417.778,225.236,418.822,225.236,419.949
C225.236,421.619,226.515,422.78,228.414,422.78
C230.794,422.78,232.047,421.362,233.008,417.652Z"/>
<path d="M272.68,404.081
V426.046
C272.68,428.552,273.11,430.097,273.928,430.64
C274.512,431.057,275.097,431.224,276.684,431.391
L276.684,432.147
H266.871
V431.391
C268.457,431.266,269.042,431.099,269.668,430.723
C270.503,430.139,270.824,428.635,270.824,426.046
L270.824,411.973
L254.802,432.148
H247.661
V431.336
C249.444,431.336,250.025,431.01,251.684,429.095
L251.684,410.679
C251.684,406.378,251.103,405.585,247.661,405.334
L247.661,404.541
H257.475
V405.353
C254.259,405.518,253.54,406.477,253.54,410.679
L253.54,427.049
L272.007,404.081Z"/>
<path d="M287.76,423.75
C282.331,423.75,278.596,419.741,278.596,413.978
C278.596,408.341,282.452,404.123,287.677,404.123
C292.938,404.123,296.924,408.549,296.924,414.312
C296.924,419.782,293.091,423.75,287.76,423.75Z
M287.217,422.59
C290.725,422.59,293.212,418.577,293.212,412.85
C293.212,408.132,291.323,405.283,288.178,405.283
C286.549,405.283,285.004,406.288,284.127,407.965
C282.958,410.136,282.308,413.059,282.308,416.024
C282.308,419.991,284.264,422.59,287.217,422.59Z"/>
<path d="M308.849,423.332
H304.696
V428.176
C304.696,428.594,304.645,428.719,304.339,428.719
C304.047,428.343,303.796,427.967,303.504,427.55
C301.917,425.253,300.122,423.248,299.453,423.081
C298.994,422.789,298.744,422.497,298.744,422.288
C298.744,422.139,298.785,422.04,298.911,421.94
L301.101,421.94
V409.426
C301.101,405.918,302.361,404.123,304.84,404.123
C306.886,404.123,308.473,405.125,309.851,407.296
L309.309,407.756
C308.432,406.712,307.722,406.327,306.803,406.327
C305.258,406.327,304.697,407.445,304.697,410.052
L304.697,421.94
H308.849Z"/>
<path d="M361.156,174.915
C363.867,173.349,364.03,172.628,362.385,169.528
L363.072,169.131
L369.273,179.873
L368.586,180.269
C366.765,177.367,365.925,177.08,363.285,178.604
L347.227,187.875
C344.587,189.399,344.41,190.176,346.019,193.298
L345.332,193.694
L339.131,182.953
L339.818,182.556
C341.773,185.526,342.422,185.73,345.098,184.185Z"/>
<path d="M364.877,198.493
L359.875,201.187
L359.646,200.79
L359.676,200.676
C359.74,200.204,359.755,200.147,359.672,200.003
C359.547,199.787,359.266,199.467,358.856,199.173
C358.108,198.544,357.503,197.832,356.96,196.893
C355.311,194.036,355.965,190.909,358.569,189.406
C360.594,188.237,362.709,188.559,366.219,190.631
L368.624,192.039
C370.079,192.887,371.301,193,372.422,192.353
C374.013,191.435,374.358,189.692,373.293,187.848
C372.583,186.618,371.466,185.769,370.273,185.541
C368.931,185.303,367.912,185.458,365.578,186.177
L365.244,185.599
L370.886,182.342
L371.157,182.812
C370.942,183.273,370.953,183.46,371.204,183.894
C371.391,184.22,371.756,184.684,372.453,185.39
C373.254,186.277,373.963,187.171,374.339,187.821
C375.947,190.606,375.186,194.132,372.654,195.593
C370.845,196.637,369.15,196.458,366.596,195.04
L362.027,192.471
C360.864,191.792,359.647,191.771,358.67,192.335
C357.224,193.17,356.858,194.875,357.819,196.54
C359.009,198.601,360.865,198.976,364.564,197.949Z"/>
<path d="M396.172,225.531
L377.15,236.514
C374.979,237.767,373.851,238.901,373.778,239.859
C373.708,240.573,373.856,241.164,374.505,242.622
L373.818,243.019
L368.912,234.519
L369.598,234.123
C370.5,235.435,370.937,235.857,371.576,236.212
C372.499,236.643,373.99,236.217,376.232,234.922
L388.42,227.886
L362.877,224.068
L359.307,217.885
L359.993,217.488
C360.891,219.043,361.472,219.382,364.008,219.847
L379.957,210.639
C383.681,208.489,384.077,207.586,382.561,204.459
L383.247,204.063
L388.154,212.562
L387.467,212.958
C385.715,210.257,384.528,210.122,380.875,212.231
L366.699,220.416
L395.818,224.917Z"/>
<path d="M386.66,248.374
C383.946,243.673,385.518,238.377,390.508,235.496
C395.39,232.677,400.985,233.931,403.616,238.489
C406.247,243.045,404.417,248.73,399.427,251.612
C394.69,254.347,389.333,253.003,386.66,248.374Z
M387.402,247.319
C389.156,250.357,393.859,250.486,398.813,247.625
C402.9,245.266,404.42,242.219,402.854,239.507
C402.039,238.096,400.399,237.26,398.514,237.335
C396.049,237.408,393.183,238.291,390.616,239.774
C387.18,241.757,385.919,244.751,387.401,247.319Z"/>
<path d="M397.565,266.442
L395.457,262.789
L391.261,265.211
C390.899,265.42,390.771,265.447,390.646,265.23
C390.825,264.789,391.025,264.384,391.24,263.921
C392.436,261.398,393.274,258.842,393.085,258.179
C393.108,257.635,393.235,257.272,393.416,257.168
C393.525,257.105,393.618,257.1,393.752,257.167
L394.859,259.083
L405.744,252.799
C408.782,251.045,410.963,251.231,412.195,253.366
C413.218,255.138,413.144,257.013,411.952,259.292
L411.283,259.052
C411.748,257.77,411.755,256.947,411.296,256.151
C410.523,254.812,409.234,254.834,406.955,256.15
L396.612,262.121
L398.72,265.774Z"/>
<path d="M112.331,256.265
C109.619,254.699,108.914,254.919,107.051,257.894
L106.364,257.497
L112.565,246.756
L113.252,247.152
C111.649,250.18,111.82,251.051,114.46,252.575
L130.518,261.846
C133.158,263.37,133.92,263.135,135.819,260.181
L136.506,260.578
L130.304,271.319
L129.618,270.923
C131.212,267.744,131.064,267.081,128.388,265.536Z"/>
<path d="M130.88,241.248
L135.715,244.233
L135.486,244.63
L135.372,244.66
C134.931,244.84,134.875,244.855,134.791,244.999
C134.666,245.216,134.529,245.619,134.48,246.122
C134.31,247.084,133.995,247.964,133.453,248.903
C131.803,251.76,128.769,252.757,126.165,251.253
C124.139,250.084,123.361,248.091,123.4,244.015
L123.418,241.229
C123.425,239.546,122.912,238.43,121.792,237.783
C120.2,236.864,118.519,237.437,117.454,239.281
C116.745,240.511,116.567,241.903,116.966,243.05
C117.431,244.332,118.075,245.137,119.866,246.798
L119.532,247.376
L113.89,244.119
L114.161,243.65
C114.669,243.606,114.824,243.502,115.075,243.069
C115.263,242.743,115.483,242.195,115.747,241.238
C116.115,240.1,116.533,239.04,116.909,238.389
C118.517,235.604,121.95,234.501,124.482,235.963
C126.291,237.007,126.983,238.563,127.032,241.486
L127.091,246.728
C127.085,248.074,127.676,249.139,128.652,249.703
C130.099,250.538,131.759,250.002,132.719,248.338
C133.909,246.276,133.306,244.482,130.568,241.792Z"/>
<path d="M138.669,200.638
L157.691,211.62
C159.862,212.873,161.408,213.284,162.274,212.868
C162.928,212.572,163.365,212.148,164.303,210.857
L164.99,211.254
L160.083,219.753
L159.396,219.356
C160.081,217.919,160.229,217.33,160.217,216.599
C160.128,215.583,159.014,214.507,156.771,213.212
L144.583,206.176
L154.049,230.205
L150.479,236.389
L149.792,235.993
C150.69,234.437,150.693,233.764,149.828,231.337
L133.879,222.129
C130.155,219.978,129.175,220.087,127.225,222.964
L126.538,222.567
L131.445,214.068
L132.131,214.464
C130.669,217.333,131.146,218.428,134.798,220.537
L148.974,228.722
L138.313,201.253Z"/>
<path d="M163.223,197.464
C160.509,202.165,155.137,203.452,150.147,200.57
C145.264,197.752,143.553,192.28,146.184,187.722
C148.815,183.166,154.653,181.907,159.644,184.789
C164.381,187.524,165.896,192.834,163.223,197.464Z
M161.939,197.349
C163.693,194.311,161.454,190.173,156.499,187.313
C152.413,184.953,149.014,185.161,147.448,187.873
C146.634,189.283,146.729,191.122,147.737,192.717
C149.032,194.815,151.231,196.855,153.798,198.338
C157.233,200.322,160.457,199.917,161.939,197.349Z"/>
<path d="M173.407,178.978
L171.299,182.631
L175.494,185.053
C175.856,185.261,175.943,185.36,175.818,185.577
C175.346,185.642,174.896,185.671,174.387,185.716
C171.605,185.942,168.971,186.494,168.492,186.99
C168.01,187.241,167.632,187.312,167.451,187.208
C167.342,187.145,167.291,187.067,167.282,186.917
L168.388,185
L157.503,178.716
C154.465,176.962,153.537,174.979,154.769,172.845
C155.792,171.073,157.453,170.2,160.022,170.093
L160.149,170.792
C158.807,171.03,158.09,171.436,157.63,172.231
C156.858,173.57,157.521,174.676,159.8,175.991
L170.143,181.962
L172.252,178.31Z"/>

<path d="M347.411,325.159
C348.977,322.447,348.757,321.742,345.782,319.879
L346.179,319.192
L356.92,325.393
L356.524,326.08
C353.496,324.477,352.625,324.648,351.101,327.288
L341.83,343.346
C340.306,345.986,340.541,346.748,343.495,348.647
L343.098,349.334
L332.357,343.133
L332.753,342.446
C335.932,344.04,336.595,343.892,338.14,341.217Z"/>
<path d="M362.428,343.708
L359.443,348.543
L359.046,348.314
L359.016,348.2
C358.836,347.76,358.821,347.703,358.677,347.619
C358.46,347.494,358.057,347.357,357.554,347.308
C356.592,347.138,355.712,346.823,354.773,346.281
C351.916,344.631,350.919,341.597,352.423,338.993
C353.592,336.968,355.585,336.189,359.661,336.229
L362.447,336.246
C364.13,336.253,365.246,335.74,365.893,334.62
C366.812,333.028,366.239,331.347,364.395,330.282
C363.165,329.573,361.773,329.395,360.626,329.794
C359.344,330.259,358.539,330.903,356.878,332.694
L356.3,332.36
L359.557,326.718
L360.026,326.989
C360.07,327.497,360.174,327.653,360.607,327.903
C360.933,328.091,361.481,328.312,362.438,328.575
C363.576,328.943,364.636,329.361,365.287,329.737
C368.072,331.345,369.175,334.778,367.713,337.311
C366.669,339.119,365.113,339.811,362.19,339.86
L356.948,339.919
C355.602,339.914,354.537,340.504,353.973,341.48
C353.138,342.927,353.674,344.587,355.338,345.547
C357.4,346.737,359.194,346.134,361.884,343.396Z"/>
<path d="M154.646,336.712
C153.081,334,152.36,333.838,149.26,335.483
L148.863,334.796
L159.604,328.595
L160.001,329.282
C157.099,331.103,156.812,331.943,158.336,334.583
L167.607,350.641
C169.131,353.281,169.908,353.458,173.03,351.849
L173.426,352.536
L162.685,358.737
L162.288,358.05
C165.258,356.095,165.462,355.446,163.917,352.77Z"/>
<path d="M178.109,332.991
L180.803,337.993
L180.406,338.222
L180.292,338.192
C179.82,338.127,179.763,338.113,179.619,338.196
C179.403,338.321,179.083,338.602,178.789,339.012
C178.16,339.76,177.448,340.365,176.509,340.907
C173.652,342.557,170.525,341.903,169.022,339.299
C167.853,337.273,168.175,335.159,170.247,331.648
L171.655,329.244
C172.503,327.789,172.616,326.567,171.969,325.446
C171.051,323.855,169.308,323.51,167.464,324.575
C166.234,325.285,165.385,326.402,165.157,327.594
C164.919,328.937,165.074,329.956,165.793,332.29
L165.215,332.624
L161.958,326.982
L162.427,326.711
C162.889,326.926,163.076,326.915,163.51,326.664
C163.836,326.477,164.3,326.112,165.006,325.415
C165.893,324.614,166.787,323.905,167.437,323.529
C170.222,321.921,173.748,322.682,175.209,325.214
C176.253,327.023,176.074,328.718,174.656,331.272
L172.087,335.841
C171.408,337.004,171.387,338.221,171.951,339.198
C172.786,340.644,174.491,341.01,176.156,340.049
C178.217,338.859,178.592,337.003,177.565,333.304Z"/>
<path d="M251.712,191.564
C248.58,191.564,248.079,192.101,247.953,195.568
L247.16,195.568
V183.166
H247.972
C248.096,186.59,248.678,187.272,251.712,187.272
L270.253,187.272
C273.301,187.272,273.844,186.685,274.011,183.166
L274.767,183.166
V195.568
H273.956
C273.75,192.019,273.298,191.564,270.253,191.564Z"/>
<path d="M260.273,169.278
L265.952,169.445
V169.872
L265.868,169.955
C265.576,170.331,265.534,170.373,265.534,170.54
C265.534,170.79,265.618,171.208,265.827,171.667
C266.161,172.586,266.328,173.505,266.328,174.59
C266.328,177.889,264.198,180.195,261.191,180.195
C258.853,180.195,257.182,178.88,255.178,175.384
L253.8,172.962
C252.965,171.5,251.962,170.8,250.668,170.8
C248.831,170.8,247.671,172.133,247.671,174.257
C247.671,175.676,248.21,176.971,249.123,177.764
C250.167,178.641,251.127,179.017,253.508,179.56
L253.508,180.154
H246.993
V179.685
C247.411,179.393,247.494,179.226,247.494,178.725
C247.494,178.349,247.411,177.764,247.16,176.804
C246.91,175.635,246.743,174.507,246.743,173.756
C246.743,170.54,249.165,167.9,252.088,167.9
C254.176,167.9,255.554,168.893,257.057,171.375
L259.73,175.885
C260.398,177.055,261.442,177.644,262.569,177.644
C264.24,177.644,265.4,176.365,265.4,174.466
C265.4,172.086,263.982,170.833,260.272,169.872Z"/>
<path d="M55.9919,427.044
V408.415
C55.9919,405.26,55.6116,404.851,52.7441,404.666
L52.7441,403.96
H62.9055
V404.656
C60.052,404.805,59.5881,405.288,59.5881,408.006
L59.5881,427.044
H61.4441
C65.4111,427.044,66.1768,426.367,66.9771,422.223
L67.812,422.223
L67.6033,428.552
H47.9761
L47.7673,422.223
H48.6023
C49.4373,426.269,50.2378,427.044,54.1353,427.044Z"/>
<path d="M73.9719,416.692
C75.438,418.4,76.4844,419.063,77.8462,419.063
C79.5862,419.063,80.4678,417.715,80.4678,415.096
L80.4678,407.746
C80.4678,405.222,80.1187,404.74,78.0898,404.517
L78.0898,403.96
H85.4673
V404.517
C83.5881,404.888,83.3679,405.185,83.3679,407.746
L83.3679,415.133
C83.3679,419.031,81.9099,421.035,79.0991,421.035
C77.0415,421.035,75.5764,420.144,73.9719,417.917
L73.9719,429.201
L73.8096,429.313
C72.6265,428.867,71.7566,428.571,69.8076,427.977
L68.8682,427.68
V427.086
C69.0073,427.123,69.1116,427.123,69.2856,427.123
C70.782,427.123,71.072,426.826,71.072,425.23
L71.072,407.747
C71.072,405.148,70.8623,404.814,68.8333,404.517
L68.8333,403.961
H76.3499
V404.517
C74.3315,404.74,73.9719,405.185,73.9719,407.747Z"/>
<path d="M100.118,410.048
C98.4482,407.227,96.9517,406.141,94.7246,406.141
C92.7412,406.141,91.2446,407.221,90.2356,409.342
C89.6094,410.764,89.3657,412,89.2961,414.284
L100.014,414.284
C99.7361,416.674,99.3882,417.741,98.5181,418.919
C97.4741,420.255,95.8733,421.035,94.0637,421.035
C92.3237,421.035,90.6882,420.367,89.3657,419.104
C87.7302,417.583,86.7905,414.947,86.7905,411.903
C86.7905,406.781,89.2959,403.589,93.2981,403.589
C96.604,403.589,99.2139,405.779,100.676,409.788
L100.118,410.048Z
M89.3652,415.444
C89.7478,418.33,90.9312,419.759,93.054,419.759
C95.1765,419.759,96.0117,418.708,96.4641,415.444Z"/>
<path d="M47.6052,376.575
V385.187
H46.8049
C46.3875,382.217,45.761,381.688,42.9771,381.688
L38.0125,381.688
V389.901
C38.0125,390.94,38.1736,391.2,39.0447,391.2
L43.7773,391.2
C47.7097,391.2,48.4753,390.637,49.0669,387.265
L49.9368,387.265
L49.8325,392.592
H31.3538
V391.868
C33.929,391.646,34.416,391.126,34.416,388.528
L34.416,372.455
C34.416,369.374,34.0288,368.891,31.3538,368.706
L31.3538,368.001
H41.0977
V368.697
C38.4182,368.845,38.0122,369.367,38.0122,372.046
L38.0122,380.18
H42.9768
C45.7954,380.18,46.387,379.616,46.8047,376.575Z"/>
<path d="M64.5295,370.45
C63.938,369.93,63.5205,369.796,62.9985,369.796
C62.1982,369.796,61.9082,370.303,61.9082,371.898
L61.9082,379.136
C61.9082,381.066,61.7458,382.143,61.2588,383.033
C60.4934,384.37,58.9968,385.075,56.9436,385.075
C53.6726,385.075,51.1206,383.256,51.1206,380.918
C51.1206,380.064,51.8062,379.322,52.5938,379.322
C53.4287,379.322,54.1365,380.064,54.1365,380.881
C54.1365,381.029,54.1133,381.215,54.0901,381.474
C54.0205,381.808,53.9626,382.105,53.9626,382.365
C53.9626,383.367,55.0867,384.147,56.4912,384.147
C58.1963,384.147,59.1243,383.083,59.1243,381.103
L59.1243,378.839
C53.7732,376.538,53.1829,376.241,51.6887,374.83
C50.9233,374.088,50.4246,372.826,50.4246,371.601
C50.4246,369.263,51.9602,367.629,54.0901,367.629
C55.6211,367.629,57.0479,368.409,59.1707,370.339
C59.3445,368.409,59.9709,367.629,61.3977,367.629
C62.5808,367.629,63.3115,368.075,64.5295,369.485
L64.5295,370.45Z
M59.124,372.566
C59.124,371.415,58.9524,371.081,58.231,370.635
C57.396,370.116,56.4214,369.833,55.6907,369.833
C54.4729,369.833,53.4404,371.073,53.4404,372.64
L53.4404,372.789
C53.4404,374.979,54.8787,376.315,59.1243,377.948Z"/>
<path d="M73.45,384.704
H69.9121
V389.01
C69.9121,389.381,69.8809,389.492,69.6919,389.492
C69.4485,389.158,69.2395,388.824,68.9961,388.453
C67.6738,386.412,66.1775,384.63,65.6206,384.481
C65.238,384.222,65.0291,383.962,65.0291,383.776
C65.0291,383.677,65.0637,383.611,65.1682,383.544
L67.0125,383.544
V372.344
C67.0125,369.226,68.0564,367.629,70.1096,367.629
C71.8147,367.629,73.1372,368.52,74.2854,370.45
L73.833,370.859
C73.1023,369.931,72.5107,369.601,71.7451,369.601
C70.4575,369.601,69.9124,370.591,69.9124,372.9
L69.9124,383.544
H73.4502Z"/>
<path d="M79.772,380.732
C81.238,382.44,82.2844,383.103,83.6462,383.103
C85.3862,383.103,86.2678,381.755,86.2678,379.136
L86.2678,371.786
C86.2678,369.262,85.9187,368.78,83.8899,368.557
L83.8899,368
H91.2673
V368.557
C89.3882,368.928,89.168,369.225,89.168,371.786
L89.168,379.173
C89.168,383.071,87.71,385.075,84.8992,385.075
C82.8416,385.075,81.3765,384.184,79.772,381.957
L79.772,393.241
L79.6096,393.353
C78.4265,392.907,77.5566,392.611,75.6077,392.017
L74.6682,391.72
V391.126
C74.8074,391.163,74.9116,391.163,75.0857,391.163
C76.582,391.163,76.8721,390.866,76.8721,389.27
L76.8721,371.787
C76.8721,369.188,76.6624,368.854,74.6333,368.557
L74.6333,368.001
H82.1499
V368.557
C80.1316,368.78,79.772,369.225,79.772,371.787Z"/>
<path d="M105.918,374.088
C104.248,371.267,102.752,370.181,100.525,370.181
C98.5413,370.181,97.0447,371.261,96.0356,373.382
C95.4094,374.804,95.1658,376.04,95.0962,378.324
L105.814,378.324
C105.536,380.714,105.188,381.781,104.318,382.959
C103.274,384.295,101.673,385.075,99.8638,385.075
C98.1238,385.075,96.4883,384.407,95.1658,383.145
C93.5303,381.623,92.5906,378.987,92.5906,375.943
C92.5906,370.821,95.0959,367.629,99.0981,367.629
C102.404,367.629,105.014,369.819,106.476,373.828
L105.918,374.088Z
M95.165,379.484
C95.5476,382.37,96.731,383.799,98.8538,383.799
C100.976,383.799,101.812,382.749,102.264,379.484Z"/>
<path d="M107.392,382.477
C107.879,382.588,108.192,382.667,108.609,382.667
C109.479,382.667,109.816,382.062,109.816,380.398
L109.816,371.118
C109.816,369.262,109.57,369.003,107.322,368.557
L107.322,368
H115.674
V368.58
C113.307,368.69,112.716,369.243,112.716,371.341
L112.716,379.693
C112.716,380.881,114.212,382.778,115.152,382.778
C115.36,382.778,115.674,382.579,116.056,382.18
C116.613,381.66,116.996,381.479,117.448,381.479
C118.283,381.479,118.805,382.094,118.805,383.108
C118.805,384.333,118.075,385.075,116.892,385.075
C115.43,385.075,114.421,384.221,112.716,381.586
L112.716,385.001
L112.542,385.075
C110.698,384.259,109.445,383.776,107.392,383.071Z"/>
<path d="M396.452,406.164
V387.535
C396.452,384.38,396.072,383.971,393.204,383.786
L393.204,383.081
H403.365
V383.776
C400.512,383.925,400.048,384.408,400.048,387.126
L400.048,406.164
H401.904
C405.871,406.164,406.637,405.487,407.437,401.343
L408.272,401.343
L408.063,407.672
H388.436
L388.227,401.343
H389.062
C389.897,405.389,390.698,406.164,394.595,406.164Z"/>
<path d="M414.316,395.812
C415.782,397.52,416.828,398.183,418.19,398.183
C419.93,398.183,420.812,396.835,420.812,394.216
L420.812,386.866
C420.812,384.343,420.463,383.86,418.434,383.637
L418.434,383.081
H425.811
V383.637
C423.932,384.008,423.712,384.305,423.712,386.866
L423.712,394.253
C423.712,398.151,422.254,400.155,419.443,400.155
C417.385,400.155,415.92,399.264,414.316,397.037
L414.316,408.322
L414.154,408.433
C412.97,407.988,412.101,407.691,410.152,407.097
L409.212,406.8
V406.206
C409.351,406.243,409.456,406.243,409.63,406.243
C411.126,406.243,411.416,405.946,411.416,404.35
L411.416,386.867
C411.416,384.268,411.206,383.934,409.177,383.637
L409.177,383.081
H416.694
V383.637
C414.676,383.86,414.316,384.305,414.316,386.867Z"/>
<path d="M440.462,389.168
C438.792,386.347,437.296,385.261,435.069,385.261
C433.085,385.261,431.589,386.341,430.58,388.462
C429.953,389.885,429.71,391.12,429.64,393.404
L440.358,393.404
C440.08,395.794,439.732,396.862,438.862,398.039
C437.818,399.375,436.217,400.155,434.408,400.155
C432.668,400.155,431.032,399.487,429.71,398.225
C428.074,396.703,427.135,394.067,427.135,391.023
C427.135,385.901,429.64,382.709,433.642,382.709
C436.948,382.709,439.558,384.899,441.02,388.908
L440.462,389.168Z
M429.709,394.564
C430.092,397.45,431.275,398.879,433.398,398.879
C435.521,398.879,436.356,397.828,436.808,394.564Z"/>
<path d="M465.484,408.192
H464.753
C464.614,407.325,464.231,406.93,463.639,406.93
C463.292,406.93,462.7,407.072,462.108,407.356
C460.821,407.876,459.533,408.191,458.42,408.191
C456.923,408.191,455.392,407.553,454.244,406.465
C453.026,405.315,452.365,403.756,452.365,401.825
C452.365,398.856,453.905,396.777,457.828,394.587
C460.333,393.177,462.143,391.655,463.013,390.244
C463.326,389.762,463.5,388.982,463.5,388.091
C463.5,385.604,461.76,383.874,459.22,383.874
C456.123,383.874,453.93,385.922,452.19,390.467
L451.39,390.467
L452.434,382.598
H453.188
C453.223,383.303,453.646,383.823,454.174,383.823
C454.556,383.823,455.148,383.674,455.809,383.414
C457.132,382.858,458.524,382.561,459.916,382.561
C463.917,382.561,466.98,385.493,466.98,389.316
C466.98,392.36,465.076,394.773,460.507,397.408
C456.853,399.561,455.38,401.194,455.38,403.199
C455.38,405.24,456.846,406.683,459.01,406.683
C460.576,406.683,462.038,405.967,463.256,404.609
C464.334,403.417,464.822,402.447,465.378,400.248
L466.248,400.248Z"/>
<path d="M477.884,400.155
C473.36,400.155,470.228,396.592,470.228,391.469
C470.228,386.458,473.449,382.709,477.814,382.709
C482.199,382.709,485.54,386.644,485.54,391.766
C485.54,396.629,482.339,400.155,477.884,400.155Z
M477.432,399.111
C480.355,399.111,482.408,395.55,482.408,390.467
C482.408,386.273,480.842,383.753,478.232,383.753
C476.875,383.753,475.587,384.642,474.857,386.124
C473.882,388.054,473.36,390.653,473.36,393.288
C473.36,396.814,474.982,399.111,477.432,399.111Z"/>
<path d="M487.141,397.854
C487.349,397.965,487.697,398.002,488.08,398.002
C489.054,398.002,489.368,397.446,489.368,395.627
L489.368,386.421
C489.368,384.305,488.985,383.786,487.21,383.637
L487.21,383.081
H494.588
V383.637
C492.813,383.786,492.268,384.231,492.268,385.567
L492.268,395.998
C493.948,397.668,494.72,398.067,495.875,398.067
C497.58,398.067,498.416,396.932,498.416,394.513
L498.416,386.755
C498.416,384.417,497.963,383.786,496.223,383.637
L496.223,383.081
H503.461
V383.637
C501.756,383.823,501.315,384.268,501.315,386.087
L501.315,394.587
C501.315,398.076,499.792,400.155,497.232,400.155
C495.625,400.155,494.54,399.524,492.163,397.148
L492.163,400.081
L491.943,400.155
C490.238,399.487,489.055,399.079,487.141,398.485Z"/>
<path d="M250.382,287.844
H237.959
V286.93
C240.053,286.784,240.638,286.638,241.223,286.248
C241.954,285.81,242.288,284.689,242.288,282.594
L242.288,274.702
C242.288,273.143,239.296,271.851,235.766,271.851
C227.825,271.851,222.916,277.395,222.916,286.443
C222.916,291.023,224.294,295.457,226.461,297.844
C228.604,300.231,231.625,301.519,234.938,301.519
C237.666,301.519,240.053,300.602,241.953,298.867
C243.415,297.495,244.194,296.171,245.412,293.181
L246.605,293.181
L246.215,303.491
H245.072
C244.779,302.567,243.902,301.883,242.879,301.883
C242.392,301.883,241.613,302.03,240.736,302.375
C238.543,303.105,236.302,303.49,234.11,303.49
C224.366,303.49,217.348,296.331,217.348,286.395
C217.348,281.62,218.679,277.966,221.443,275.092
C224.707,271.73,229.384,269.879,234.743,269.879
C238.957,269.879,245.083,271.584,247.044,273.289
L247.044,283.179
C247.044,286.053,247.615,286.687,250.382,286.93Z"/>
<path d="M263.168,292.971
C256.834,292.971,252.38,288.294,252.38,281.571
C252.38,274.994,256.92,270.073,263.071,270.073
C269.209,270.073,273.84,275.237,273.84,281.96
C273.84,288.343,269.377,292.971,263.168,292.971Z
M262.535,291.579
C266.627,291.579,269.432,286.914,269.432,280.256
C269.432,274.75,267.265,271.465,263.655,271.465
C261.755,271.465,259.953,272.624,258.929,274.555
C257.565,277.089,256.788,280.499,256.788,283.958
C256.788,288.586,259.077,291.579,262.535,291.579Z"/>
<path d="M292.108,270.073
L299.269,272.606
V273.385
C298.392,273.337,298.295,273.337,298.149,273.337
C296.395,273.337,295.996,273.873,295.996,276.114
L295.996,303.738
L295.762,303.835
C293.424,303.007,291.718,302.52,288.6,301.691
L288.6,300.912
C288.99,300.961,289.282,300.961,289.672,300.961
C291.475,300.961,291.82,300.474,291.82,298.476
L291.82,290.876
C290.003,292.435,288.71,292.971,286.798,292.971
C281.195,292.971,276.625,287.466,276.625,280.547
C276.625,274.311,280.295,270.073,285.677,270.073
C288.365,270.073,290.188,271.047,291.82,273.337
L291.82,270.219
L292.108,270.073Z
M291.82,275.53
C291.82,275.189,291.517,274.604,291.084,274.068
C290.208,273.094,288.99,272.625,287.577,272.625
C283.533,272.625,280.8,276.516,280.8,282.497
C280.8,288.002,283.208,291.58,286.943,291.58
C289.525,291.58,291.82,289.303,291.82,286.736Z"/>
<path d="M212.476,94.7041
V77.3042
C212.476,74.3464,212.144,73.9636,209.646,73.7896
L209.646,73.1284
H218.452
V73.8242
C215.979,73.9622,215.608,74.4087,215.608,76.9214
L215.608,94.7041
H217.185
C220.624,94.7041,221.287,94.0779,221.981,90.2498
L222.704,90.2498
L222.523,96.2119
H205.513
L205.333,90.2498
H206.056
C206.78,94.0427,207.474,94.7041,210.852,94.7041Z"/>
<path d="M228.02,85.0645
C229.279,86.665,230.177,87.28,231.347,87.28
C232.854,87.28,233.588,86.0193,233.588,83.5681
L233.588,76.6777
C233.588,74.3115,233.29,73.8591,231.558,73.6501
L231.558,73.1282
H237.952
V73.6501
C236.323,73.998,236.14,74.2764,236.14,76.6777
L236.14,83.6028
C236.14,87.2566,234.875,89.1357,232.433,89.1357
C230.661,89.1357,229.4,88.3008,228.02,86.2126
L228.02,96.7917
L227.848,96.896
C226.823,96.4785,226.069,96.2002,224.38,95.6433
L223.566,95.365
V94.8083
C223.687,94.843,223.777,94.843,223.928,94.843
C225.225,94.843,225.468,94.5647,225.468,93.0684
L225.468,76.6777
C225.468,74.2419,225.287,73.9287,223.536,73.6501
L223.536,73.1282
H230.05
V73.6501
C228.301,73.8589,228.02,74.2764,228.02,76.6777Z"/>
<path d="M250.649,78.8352
C249.202,76.1904,247.905,75.2161,245.975,75.2161
C244.256,75.2161,242.959,76.2136,242.084,78.1738
C241.541,79.4927,241.33,80.6387,241.27,82.7556
L250.559,82.7556
C250.318,85.0232,250.016,86.0349,249.262,87.1519
C248.357,88.4045,246.97,89.1353,245.402,89.1353
C243.894,89.1353,242.476,88.509,241.33,87.3257
C239.913,85.8989,239.098,83.4282,239.098,80.5747
C239.098,75.7725,241.27,72.7795,244.738,72.7795
C247.603,72.7795,249.865,74.8325,251.132,78.5911
L250.649,78.8352Z
M241.33,83.916
C241.661,86.6072,242.687,87.8599,244.527,87.8599
C246.366,87.8599,247.09,86.8994,247.482,83.916Z"/>
<path d="M263.632,85.656
V92.3723
C263.632,94.8777,263.954,95.2605,266.209,95.5042
L266.209,96.2117
H257.825
V95.5042
C260.147,95.2607,260.5,94.8779,260.5,92.3723
L260.5,77.304
C260.5,74.3809,260.196,73.9634,257.825,73.7893
L257.825,73.1282
H266.209
V73.7893
C263.947,73.998,263.632,74.4504,263.632,76.9211
L263.632,84.1477
H272.68
V77.3037
C272.68,74.3806,272.379,73.9631,270.04,73.7891
L270.04,73.1279
H278.424
V73.7891
C276.162,73.9978,275.812,74.4502,275.812,76.9209
L275.812,92.3721
C275.812,94.8774,276.137,95.2603,278.424,95.5039
L278.424,96.2114
H270.04
V95.5039
C272.362,95.2605,272.68,94.8777,272.68,92.3721
L272.68,85.6558Z"/>
<path d="M286.6,89.136
C282.679,89.136,279.988,85.7954,279.988,80.9929
C279.988,76.2949,282.77,72.7803,286.54,72.7803
C290.34,72.7803,293.212,76.469,293.212,81.2712
C293.212,85.8298,290.446,89.136,286.6,89.136Z
M286.208,88.208
C288.741,88.208,290.544,84.8489,290.544,80.0532
C290.544,76.1208,289.177,73.7083,286.901,73.7083
C285.725,73.7083,284.609,74.5608,283.976,75.9817
C283.132,77.7913,282.656,80.2271,282.656,82.698
C282.656,86.0039,284.071,88.2078,286.208,88.2078Z"/>
<path d="M294.713,94.8083
H294.894
C295.225,94.843,295.587,94.8779,295.829,94.8779
C296.794,94.8779,297.04,94.3909,297.04,92.7554
L297.04,76.156
C297.04,74.2769,296.628,73.8245,294.773,73.6506
L294.773,73.1287
H301.891
V73.6506
C299.991,73.7898,299.592,74.1377,299.592,76.0518
L299.592,96.8271
L299.508,96.8967
C297.94,96.3052,296.794,95.9573,294.713,95.3657Z"/>
<path d="M316.818,88.7881
H312.746
V88.2083
C313.711,88.2083,314.194,87.916,314.194,87.3965
C314.194,87.2573,314.164,87.0486,314.073,86.8049
L311.148,77.2002
L307.68,86.0044
C307.499,86.4915,307.378,86.9438,307.378,87.3267
C307.378,87.9529,307.831,88.1965,309.127,88.2661
L309.127,88.7881
H302.915
V88.301
C303.698,88.1619,304.211,87.7791,304.453,87.1875
L307.891,78.6267
L307.981,78.3484
L308.434,77.3044
C309.278,75.5645,309.76,74.3118,309.76,73.7898
C309.76,73.2678,309.067,71.0754,308.554,70.0315
C308.132,69.1267,307.469,68.4424,307.046,68.4424
C306.865,68.4424,306.594,68.5188,306.292,68.709
C305.719,68.9524,305.207,69.0684,304.694,69.0684
C304,69.0684,303.397,68.3828,303.397,67.5605
C303.397,66.4124,304.362,65.4727,305.629,65.4727
C307.649,65.4727,309.097,67.4412,310.726,72.5022
L315.37,86.7004
C315.762,87.814,316.094,88.1619,316.818,88.2664Z"/>
<path d="M240.342,62.1313
H239.708
C239.588,61.2998,239.256,60.9482,238.743,60.9482
C238.442,60.9482,237.929,61.0723,237.416,61.3193
C236.301,61.8064,235.185,62.1311,234.219,62.1311
C232.923,62.1311,231.596,61.5222,230.6,60.4841
C229.545,59.4055,229.065,57.9438,229.065,56.1343
C229.065,53.3503,230.374,51.4016,233.707,49.3484
C235.878,48.0261,237.447,46.5994,238.2,45.2769
C238.472,44.8245,238.692,44.0938,238.692,43.2585
C238.692,40.927,237.156,39.3843,234.913,39.3843
C232.229,39.3843,230.329,41.2795,228.821,45.4858
L228.127,45.4858
L229.032,38.1084
H229.716
C229.745,38.7695,230.099,39.2566,230.54,39.2566
C230.871,39.2566,231.384,39.1174,231.957,38.874
C233.103,38.3521,234.31,38.0737,235.516,38.0737
C238.984,38.0737,241.708,40.8228,241.708,44.4072
C241.708,47.2607,240.038,49.5227,236.029,51.9934
C232.862,54.0117,231.616,55.543,231.616,57.4221
C231.616,59.3359,232.875,60.7395,234.732,60.7395
C236.089,60.7395,237.356,60.0505,238.411,58.7444
C239.346,57.6343,239.769,56.7319,240.251,54.6846
L241.005,54.6846Z"/>
<path d="M243.951,52.2366
C244.223,52.2712,244.434,52.2712,244.705,52.2712
C245.731,52.2712,245.884,51.9233,245.884,50.2878
L245.884,34.0015
C245.884,32.1919,245.562,31.8091,243.831,31.6003
L243.831,31.0205
H251.129
V31.6003
C248.867,31.635,248.436,32.0237,248.436,34.2451
L248.436,39.7085
C249.505,38.5603,250.239,38.2122,251.521,38.2122
C255.08,38.2122,257.832,42.1096,257.832,47.1555
C257.832,51.4707,255.73,54.5679,252.818,54.5679
C251.115,54.5679,249.775,53.698,248.436,51.8188
L248.436,54.4983
L248.295,54.5679
C246.666,53.8372,245.611,53.3848,243.952,52.7932
L243.951,52.2366Z
M248.436,50.1833
C248.436,51.2273,250.147,52.48,251.552,52.48
C253.783,52.48,255.28,49.8352,255.28,45.7986
C255.28,41.9358,253.795,39.3723,251.612,39.3723
C250.195,39.3723,248.436,40.5994,248.436,41.6226Z"/>
<path d="M264.038,54.5681
L259.363,52.6543
V52.1323
L259.604,52.167
C259.966,52.2366,260.358,52.2712,260.63,52.2712
C261.354,52.2712,261.66,51.7146,261.66,50.1833
L261.66,42.1099
C261.66,39.6045,261.354,39.2217,259.243,39.0823
L259.243,38.5603
H266.39
V39.0823
C264.4,39.2561,264.212,39.6042,264.212,42.1099
L264.212,54.4636
L264.038,54.5681Z
M262.62,62.3748
C261.806,62.3748,261.113,61.5537,261.113,60.5537
C261.113,59.5793,261.776,58.7791,262.62,58.7791
C263.495,58.7791,264.188,59.5444,264.188,60.5537
C264.188,61.5281,263.495,62.3748,262.62,62.3748Z"/>
<path d="M267.323,52.1321
C267.745,52.2363,268.017,52.3176,268.378,52.3176
C269.132,52.3176,269.432,51.7483,269.432,50.1833
L269.432,41.4834
C269.432,39.7434,269.218,39.5,267.262,39.0823
L267.262,38.5603
H274.501
V39.1401
C272.45,39.2422,271.984,39.7524,271.984,41.6919
L271.984,49.5217
C271.984,50.6353,273.251,52.4216,274.048,52.4216
C274.229,52.4216,274.501,52.2327,274.832,51.8533
C275.315,51.3662,275.646,51.2039,276.039,51.2039
C276.762,51.2039,277.215,51.7778,277.215,52.7234
C277.215,53.8716,276.581,54.5676,275.556,54.5676
C274.306,54.5676,273.443,53.7673,271.983,51.2966
L271.983,54.498
L271.786,54.5676
C270.188,53.8022,269.102,53.3499,267.323,52.6885Z"/>
<path d="M282.366,54.5681
L277.691,52.6543
V52.1323
L277.933,52.167
C278.294,52.2366,278.687,52.2712,278.958,52.2712
C279.682,52.2712,279.988,51.7146,279.988,50.1833
L279.988,42.1099
C279.988,39.6045,279.682,39.2217,277.571,39.0823
L277.571,38.5603
H284.719
V39.0823
C282.728,39.2561,282.54,39.6042,282.54,42.1099
L282.54,54.4636
L282.366,54.5681Z
M280.948,62.3748
C280.134,62.3748,279.441,61.5537,279.441,60.5537
C279.441,59.5793,280.104,58.7791,280.948,58.7791
C281.823,58.7791,282.517,59.5444,282.517,60.5537
C282.517,61.5281,281.823,62.3748,280.948,62.3748Z"/>
<path d="M293.247,54.22
H290.196
V58.2566
C290.196,58.6045,290.167,58.709,289.99,58.709
C289.779,58.396,289.598,58.0828,289.387,57.7346
C288.241,55.8208,286.944,54.1504,286.461,54.0112
C286.13,53.7678,285.949,53.5242,285.949,53.3501
C285.949,53.2261,285.979,53.1426,286.069,53.0603
L287.645,53.0603
V42.6321
C287.645,39.709,288.557,38.2126,290.352,38.2126
C291.83,38.2126,292.976,39.0476,293.971,40.8574
L293.579,41.24
C292.946,40.3701,292.433,40.0686,291.77,40.0686
C290.654,40.0686,290.197,40.9941,290.197,43.1541
L290.197,53.0603
H293.248Z"/>
</g>
</svg>
